# xmcd
#
# Track frame offsets:
#	150
#	17828
#	36506
#
# Disc length: 716 seconds
#
# Revision: 4
# Processed by: cddbd v1.5.2PL0 Copyright (c) Steve Scherf et al.
# Submitted via: EasyCDDAExtractor 8.2.1.1
#
DISCID=2002ca03
DTITLE=Morgan Evans - Big Skies Single
DYEAR=2007
DGENRE=Country
TTITLE0=Big Skies
TTITLE1=Wasted Love
TTITLE2=There's No Time
EXTD=
EXTT0=
EXTT1=
EXTT2=
PLAYORDER=
